<?xml version="1.0" ?><!DOCTYPE svg  PUBLIC '-//W3C//DTD SVG 1.1//EN'  'http://www.w3.org/Graphics/SVG/1.1/DTD/svg11.dtd'><svg enable-background="new 0 0 500 500" height="500px" id="Layer_1" version="1.1" viewBox="0 0 500 500" width="500px" xml:space="preserve" xmlns="http://www.w3.org/2000/svg" xmlns:xlink="http://www.w3.org/1999/xlink"><path clip-rule="evenodd" d="M227.788,172.774c0-12.538,10.177-22.713,22.713-22.713  c12.536,0,22.715,10.175,22.715,22.713c0,12.536-10.179,22.713-22.715,22.713C237.964,195.487,227.788,185.31,227.788,172.774z   M250.501,113.718c-32.619,0-59.056,26.441-59.056,59.056c0,32.615,26.437,59.056,59.056,59.056  c32.614,0,59.056-26.44,59.056-59.056C309.557,140.159,283.115,113.718,250.501,113.718z M109.676,170.228  c0,92.672,109.297,163.992,118.112,270.569v4.543c0,12.536,10.177,22.711,22.713,22.711c12.536,0,22.715-10.175,22.715-22.711  v-4.543c9.35-106.577,118.108-177.897,118.108-270.569c0-76.407-63.045-138.278-140.823-138.278  C172.729,31.949,109.676,93.821,109.676,170.228z M250.501,77.375c52.693,0,95.396,42.705,95.396,95.398  c0,52.694-42.702,95.398-95.396,95.398c-52.694,0-95.398-42.704-95.398-95.398C155.103,120.08,197.807,77.375,250.501,77.375z" fill="#010101" fill-rule="evenodd"/></svg>