<?xml version="1.0" standalone="no"?><!-- Generator: Gravit.io --><svg xmlns="http://www.w3.org/2000/svg" xmlns:xlink="http://www.w3.org/1999/xlink" style="isolation:isolate" viewBox="0 0 48 48" width="48" height="48"><defs><clipPath id="_clipPath_cSuQxJOXIv6CLboX6sE7vte2NPacAEyK"><rect width="48" height="48"/></clipPath></defs><g clip-path="url(#_clipPath_cSuQxJOXIv6CLboX6sE7vte2NPacAEyK)"><g id="settings"><path d=" M 21.9 4.6 L 21.7 4.6 L 21.9 4.6 L 21.9 4.6 L 21.9 4.6 L 20.8 5.2 L 20.3 6.4 L 20 8.1 L 19.9 8.8 L 19.3 9.5 L 17 10.5 L 16.5 10.6 L 15.9 10.4 L 14.4 9.3 L 14.1 9.1 L 12.8 8.6 L 11.3 9.3 L 11.2 9.3 L 11.4 9.2 L 11.4 9.2 L 11.3 9.3 L 9.1 11.5 L 8.9 11.7 C 8.7 12 8.3 12 8 11.8 C 7.8 11.5 7.8 11.1 8 10.9 L 8.2 10.7 L 10.5 8.3 L 10.6 8.2 L 12.7 7.3 L 14.7 7.9 L 15.2 8.3 L 16.5 9.3 L 16.6 9.3 L 16.6 9.3 L 18.6 8.5 L 18.7 8.3 L 18.8 7.9 L 19.1 6 L 19.9 4.4 L 21.4 3.5 L 21.6 3.4 L 26.2 3.4 L 26.5 3.5 C 27.7 3.8 28.5 4.8 28.8 6 C 28.8 6 28.8 6 28.8 6 L 29.1 8.2 L 29.3 8.4 L 30.3 8.8 L 31.3 9.3 L 31.4 9.2 L 32.7 8.3 L 33.3 7.9 L 35.2 7.2 L 37.4 8.2 L 37.8 8.6 L 38 8.8 C 38.2 9 38.2 9.4 38 9.7 C 37.8 9.9 37.4 9.9 37.1 9.7 L 36.9 9.5 L 36.7 9.3 L 35.1 8.6 L 33.9 9 L 33.4 9.4 L 31.9 10.4 L 31.4 10.5 L 31 10.5 L 29.8 10 L 28.5 9.5 L 27.9 8.8 L 27.5 6.2 C 27.4 5.5 26.8 4.9 26.1 4.7 C 26.1 4.7 26.1 4.7 26 4.6 L 26 4.6 L 21.9 4.6 Z  M 31.3 9.3 L 31.3 9.3 L 31.5 9.3 L 31.2 9.3 L 31.3 9.3 Z " fill-rule="evenodd" fill="rgb(0,0,0)"/><path d=" M 31.3 38.8 L 31.3 38.8 L 31.3 38.8 L 31.4 38.7 L 31.3 38.8 L 29.3 39.6 L 29.2 39.7 L 29 41.1 L 28.8 41.9 C 28.7 43 27.9 43.9 26.9 44.4 C 26.9 44.4 26.9 44.4 26.9 44.4 L 26.6 44.5 L 26.3 44.6 L 21.6 44.6 L 21.5 44.5 L 21.4 44.5 L 21.4 44.5 L 21.6 44.5 C 21.5 44.5 21.5 44.5 21.5 44.5 C 20.2 44.1 19.3 43.1 19.2 41.8 L 19 40.7 L 18.8 39.7 L 18.7 39.5 L 18.6 39.5 L 18.4 39.4 C 18 39.3 17.9 38.9 18 38.6 C 18.1 38.3 18.5 38.1 18.8 38.3 L 19 38.3 L 19.4 38.5 L 20 39.2 L 20.2 40.5 L 20.4 41.6 C 20.4 41.6 20.4 41.6 20.4 41.6 C 20.5 42.5 21.1 43.1 21.9 43.3 C 21.9 43.3 22 43.4 22 43.4 C 22 43.4 22 43.4 22.1 43.4 L 22.1 43.5 L 22.2 43.5 L 21.8 43.4 L 22 43.4 L 26.1 43.4 L 26.1 43.4 L 26.5 43.2 C 27.1 43 27.5 42.4 27.6 41.7 C 27.6 41.7 27.6 41.7 27.6 41.7 L 27.7 40.9 L 28 39.2 L 28.5 38.5 L 31 37.5 L 31.3 37.5 L 31.9 37.6 L 33.1 38.5 L 33.9 39 L 35.1 39.5 L 36.6 38.8 L 38.8 36.6 L 39.4 35.2 L 39 33.9 L 38.8 33.6 L 37.6 32 L 37.4 31.4 L 37.5 30.9 L 38.5 28.6 L 39.2 28 L 41.7 27.6 C 42.5 27.5 43.1 26.9 43.3 26.2 C 43.3 26.2 43.3 26.1 43.4 26.1 L 43.4 26.1 L 43.4 22 L 42.7 20.9 L 41.6 20.4 L 39.9 20.1 L 39.2 20 L 38.5 19.5 L 38 18.2 L 37.5 17 L 37.5 16.7 L 37.6 16.1 L 38.5 14.8 L 39 14.2 L 39.5 12.9 L 39.5 12.7 C 39.5 12.3 39.7 12 40.1 12 C 40.4 12 40.7 12.2 40.7 12.6 L 40.8 13 L 40.1 14.8 L 39.6 15.6 L 38.8 16.7 L 38.8 16.7 L 39.2 17.7 L 39.6 18.7 L 39.7 18.8 L 40.1 18.9 L 42 19.2 L 43.6 19.9 L 44.6 21.7 L 44.6 26.4 L 44.5 26.6 C 44.1 27.8 43.1 28.7 41.9 28.9 C 41.9 28.9 41.9 28.9 41.9 28.9 L 39.7 29.2 L 39.5 29.4 L 38.7 31.3 L 38.7 31.3 L 38.7 31.4 L 39.8 32.8 L 40.1 33.3 L 40.8 35.2 L 39.8 37.4 L 37.3 39.9 L 35.2 40.8 L 33.3 40.1 L 32.3 39.5 L 31.3 38.8 L 31.3 38.8 Z  M 38.8 16.7 L 38.8 16.7 L 38.8 16.8 L 38.7 16.6 L 38.8 16.7 Z " fill-rule="evenodd" fill="rgb(0,0,0)"/><path d=" M 16.4 37.6 C 16.7 37.5 17 37.6 17.2 37.9 C 17.3 38.2 17.2 38.6 16.9 38.7 L 16.8 38.8 L 15.5 39.7 L 14.7 40.2 L 12.8 40.9 L 10.7 39.9 L 8.3 37.4 L 7.3 35.3 L 8 33.4 L 9.3 31.5 L 9.3 31.4 L 9.3 31.4 L 8.5 29.5 L 8.3 29.3 L 8 29.3 L 6 28.9 L 4.6 28.3 L 3.4 26.5 L 3.4 24.7 C 3.4 24.4 3.7 24.1 4 24.1 C 4.4 24.1 4.6 24.4 4.6 24.7 L 4.6 26.1 L 5.4 27.3 L 6.3 27.7 L 8.2 28 L 8.8 28.1 L 9.6 28.7 L 10.5 31 L 10.6 31.5 L 10.4 32.1 L 9.1 33.9 L 8.6 35.2 L 9.3 36.7 L 11.4 38.8 L 12.9 39.5 L 14.2 39.1 L 14.8 38.6 L 16.2 37.7 L 16.4 37.6 Z " fill="rgb(0,0,0)"/><path d=" M 4.6 22.5 C 4.6 22.9 4.3 23.2 4 23.2 C 3.7 23.2 3.4 22.9 3.4 22.5 L 3.4 21.8 L 3.5 21.5 C 3.9 20.3 4.9 19.5 6.1 19.3 L 7.2 19.1 L 8.3 18.9 L 8.4 18.8 L 9.2 16.8 L 9.2 16.8 L 8.5 15.7 L 7.8 14.8 L 7.5 14.1 C 7.3 13.8 7.4 13.5 7.7 13.3 C 8 13.1 8.4 13.2 8.6 13.5 L 8.9 14.1 L 9.5 15 L 10.4 16.2 L 10.5 16.8 L 10.4 17.1 L 9.4 19.6 L 8.8 20.1 L 7.4 20.3 L 6.3 20.5 C 6.3 20.5 6.3 20.5 6.3 20.5 C 5.5 20.6 4.9 21.2 4.7 21.9 C 4.7 22 4.7 22 4.6 22 L 4.6 22.1 L 4.6 22.5 Z  M 9.2 16.8 L 9.2 16.8 L 9.2 16.7 L 9.3 16.9 L 9.2 16.8 Z " fill-rule="evenodd" fill="rgb(0,0,0)"/><path d=" M 21 30.1 C 20.9 30.2 20.7 30.2 20.6 30.1 L 20.6 30.1 L 21.1 30.1 L 21.1 30.1 L 21 30.1 L 20.8 30.2 L 20.5 30.1 C 20.3 30 20.1 29.8 20.1 29.5 C 20.1 29.2 20.3 29 20.6 28.9 L 20.7 28.8 L 21 29 C 21.3 29 21.5 29.3 21.5 29.6 C 21.4 29.8 21.3 30.1 21 30.1 Z  M 20.6 28.9 C 20.7 28.9 20.8 28.9 20.9 29 L 21 29 L 20.4 29 L 20.4 29 L 20.6 28.9 Z  M 23.1 30.9 C 22.7 30.9 22.5 30.6 22.5 30.3 C 22.5 29.9 22.8 29.7 23.1 29.7 L 24 29.7 L 24 29.7 C 25.6 29.7 27 29.1 28.1 28.1 C 29.1 27 29.7 25.5 29.7 24 L 29.7 24 C 29.7 22.5 29.1 21 28.1 20 C 27 18.9 25.5 18.3 24 18.3 C 24 18.3 24 18.3 24 18.3 L 24 18.3 C 22.4 18.3 21 18.9 19.9 20 C 18.8 21 18.2 22.5 18.2 24 C 18.2 25.3 18.7 26.6 19.5 27.6 C 19.7 27.9 19.7 28.3 19.4 28.5 C 19.2 28.7 18.8 28.7 18.6 28.4 C 17.5 27.2 17 25.6 17 24 C 17 22.2 17.7 20.4 19 19.1 C 20.3 17.8 22.1 17 24 17 C 24 17 24 17 24 17 L 24 17 C 25.9 17 27.6 17.8 28.9 19.1 C 30.3 20.4 31 22.2 31 24 C 31 24 31 24 31 24 L 31 24 C 31 24 31 24 31 24 C 31 25.9 30.3 27.6 29 29 C 27.7 30.3 25.9 31 24 31 C 24 31 24 31 24 31 L 24 31 L 23.1 30.9 Z " fill-rule="evenodd" fill="rgb(0,0,0)"/></g></g></svg>