<?xml version="1.0" standalone="no"?><!-- Generator: Gravit.io --><svg xmlns="http://www.w3.org/2000/svg" xmlns:xlink="http://www.w3.org/1999/xlink" style="isolation:isolate" viewBox="0 0 48 48" width="48" height="48"><defs><clipPath id="_clipPath_6tO2UnDltuLtBWVLSy0APAxVEbK0z17F"><rect width="48" height="48"/></clipPath></defs><g clip-path="url(#_clipPath_6tO2UnDltuLtBWVLSy0APAxVEbK0z17F)"><g style="isolation:isolate" id="vendor"><path d=" M 0.5 24 C 0.5 17.8 3 11.8 7.4 7.4 C 11.8 3 17.8 0.5 24 0.5 C 30.2 0.5 36.2 3 40.6 7.4 C 45 11.8 47.5 17.8 47.5 24 C 47.5 30.2 45 36.2 40.6 40.6 C 36.2 45 30.2 47.5 24 47.5 C 17.8 47.5 11.8 45 7.4 40.6 C 3 36.2 0.5 30.2 0.5 24 Z  M 2.5 24 C 2.5 18.3 4.8 12.8 8.8 8.8 C 12.8 4.8 18.3 2.5 24 2.5 C 29.7 2.5 35.2 4.8 39.2 8.8 C 43.2 12.8 45.5 18.3 45.5 24 C 45.5 29.7 43.2 35.2 39.2 39.2 C 35.2 43.2 29.7 45.5 24 45.5 C 18.3 45.5 12.8 43.2 8.8 39.2 C 4.8 35.2 2.5 29.7 2.5 24 Z " fill-rule="evenodd" fill="rgb(0,0,0)"/><path d=" M 33.502 33.926 C 33.581 31.353 32.583 28.882 30.8 27 C 29 25.2 26.6 24.1 24 24 C 21.4 24.1 18.9 25.2 17.2 27 C 15.417 28.882 14.419 31.353 14.498 33.926 C 14.494 33.951 14.493 33.977 14.493 34.003 C 14.493 34.557 14.943 35.007 15.497 35.007 C 16.05 35.007 16.5 34.557 16.5 34.003 C 16.5 34.002 16.5 34.001 16.5 34 L 16.5 34 C 16.4 31.9 17.2 29.9 18.6 28.4 C 20 26.9 22 26.1 24 26 C 26.1 26.1 28 26.9 29.4 28.4 C 30.8 29.9 31.6 31.9 31.5 34 L 31.5 34 C 31.5 34.001 31.5 34.002 31.5 34.003 C 31.5 34.557 31.95 35.007 32.503 35.007 C 33.057 35.007 33.507 34.557 33.507 34.003 C 33.507 33.977 33.506 33.951 33.502 33.926 Z " fill-rule="evenodd" fill="rgb(0,0,0)"/><path d=" M 19.3 17.8 C 19.3 16.5 19.8 15.3 20.6 14.4 C 21.5 13.5 22.7 13 24 13 C 25.3 13 26.5 13.5 27.4 14.4 C 28.2 15.3 28.8 16.5 28.8 17.8 C 28.8 19 28.2 20.2 27.4 21.1 C 26.5 22 25.3 22.5 24 22.5 C 22.7 22.5 21.5 22 20.6 21.1 C 19.8 20.2 19.3 19 19.3 17.7 M 21.3 17.8 C 21.3 17 21.5 16.3 22.1 15.8 C 22.6 15.3 23.3 15 24 15 C 24.7 15 25.4 15.3 25.9 15.8 C 26.5 16.3 26.8 17 26.8 17.8 C 26.8 18.5 26.5 19.2 25.9 19.7 C 25.4 20.2 24.7 20.5 24 20.5 C 23.3 20.5 22.6 20.2 22.1 19.7 C 21.5 19.2 21.3 18.5 21.3 17.8 Z " fill-rule="evenodd" fill="rgb(0,0,0)"/></g></g></svg>