<?xml version="1.0" standalone="no"?><!-- Generator: Gravit.io --><svg xmlns="http://www.w3.org/2000/svg" xmlns:xlink="http://www.w3.org/1999/xlink" style="isolation:isolate" viewBox="0 0 48 48" width="48" height="48"><defs><clipPath id="_clipPath_IA62KBWezOQz368wKR9M2Eu4IEQcoyFY"><rect width="48" height="48"/></clipPath></defs><g clip-path="url(#_clipPath_IA62KBWezOQz368wKR9M2Eu4IEQcoyFY)"><g id="pickups"><path d=" M 6.966 32.198 L 3.231 32.198 L 3.231 15.802 C 3.231 14.891 3.595 14.071 4.142 13.524 C 4.779 12.887 5.599 12.522 6.51 12.522 C 6.51 12.522 6.51 12.522 6.51 12.522 L 26.733 12.522 C 26.733 12.522 26.733 12.522 26.733 12.522 C 27.553 12.522 28.464 12.887 29.01 13.524 C 29.648 14.071 30.012 14.891 30.012 15.802 L 30.012 32.198 L 26.733 32.198 L 17.532 32.198 C 17.168 32.198 16.895 31.925 16.895 31.561 C 16.895 31.196 17.168 30.923 17.532 30.923 L 26.733 30.923 L 28.737 30.923 L 28.737 15.802 C 28.737 15.802 28.737 15.802 28.737 15.802 C 28.737 14.709 27.826 13.798 26.733 13.798 L 6.51 13.798 C 5.417 13.798 4.506 14.709 4.506 15.802 C 4.506 15.802 4.506 15.802 4.506 15.802 L 4.506 30.923 L 6.966 30.923 C 7.33 30.923 7.603 31.196 7.603 31.561 C 7.603 31.925 7.33 32.198 6.966 32.198 Z " fill="rgb(0,0,0)"/><path d=" M 41.308 32.198 C 40.943 32.198 40.67 31.925 40.67 31.561 C 40.67 31.196 40.943 30.923 41.308 30.923 L 42.674 30.923 L 43.767 30.923 L 43.767 26.46 C 43.585 25.457 43.221 24.455 42.765 23.636 C 42.219 22.178 41.672 20.812 41.126 19.445 C 40.943 18.352 40.123 17.532 39.121 17.259 L 30.012 17.259 L 30.012 19.263 L 30.012 30.923 L 30.741 30.923 C 31.105 30.923 31.379 31.196 31.379 31.561 C 31.379 31.925 31.105 32.198 30.741 32.198 L 28.737 32.198 L 28.737 19.263 L 28.737 15.984 L 39.121 15.984 C 39.213 15.984 39.213 15.984 39.304 16.075 C 40.852 16.348 42.036 17.532 42.401 19.081 C 42.947 20.356 43.403 21.723 43.949 23.089 C 44.496 24.091 44.86 25.184 45.043 26.368 C 45.043 26.368 45.043 26.46 45.043 26.46 L 45.043 32.198 L 42.674 32.198 L 41.308 32.198 Z " fill="rgb(0,0,0)"/><path d=" M 2.138 32.198 C 1.773 32.198 1.5 31.925 1.5 31.561 C 1.5 31.196 1.773 30.923 2.138 30.923 L 3.868 30.923 C 4.233 30.923 4.506 31.196 4.506 31.561 C 4.506 31.925 4.233 32.198 3.868 32.198 L 2.138 32.198 Z " fill="rgb(0,0,0)"/><path d=" M 44.132 32.198 C 43.767 32.198 43.494 31.925 43.494 31.561 C 43.494 31.196 43.767 30.923 44.132 30.923 L 45.862 30.923 C 46.227 30.923 46.5 31.196 46.5 31.561 C 46.5 31.925 46.227 32.198 45.862 32.198 L 44.132 32.198 Z " fill="rgb(0,0,0)"/><path d=" M 37.482 23.453 L 43.494 23.453 C 43.858 23.453 44.132 23.727 44.132 24.091 C 44.132 24.455 43.858 24.729 43.494 24.729 L 37.482 24.729 C 37.117 24.729 36.844 24.455 36.844 24.091 C 36.844 23.727 37.117 23.453 37.482 23.453 Z " fill="rgb(0,0,0)"/><path d=" M 8.241 31.561 C 8.241 30.559 8.605 29.557 9.334 28.828 C 10.063 28.099 11.065 27.644 12.158 27.644 C 13.16 27.644 14.162 28.099 14.891 28.828 C 15.619 29.557 15.984 30.559 15.984 31.561 C 15.984 32.563 15.619 33.565 14.891 34.294 C 14.162 35.022 13.16 35.478 12.158 35.478 C 11.065 35.478 10.063 35.022 9.334 34.294 C 8.605 33.565 8.241 32.563 8.241 31.561 Z  M 9.516 31.561 C 9.516 30.832 9.789 30.194 10.245 29.739 C 10.791 29.192 11.429 28.919 12.158 28.919 C 13.524 28.919 14.709 30.103 14.709 31.561 C 14.709 32.289 14.435 32.927 13.98 33.383 C 13.433 33.929 12.796 34.202 12.158 34.202 C 11.429 34.202 10.791 33.929 10.245 33.383 C 9.789 32.927 9.516 32.289 9.516 31.561 Z " fill-rule="evenodd" fill="rgb(0,0,0)"/><path d=" M 32.016 31.561 C 32.016 30.559 32.381 29.557 33.109 28.828 C 33.838 28.099 34.84 27.644 35.933 27.644 C 36.935 27.644 37.937 28.099 38.666 28.828 C 39.395 29.557 39.759 30.559 39.759 31.561 C 39.759 32.563 39.395 33.565 38.666 34.294 C 37.937 35.022 36.935 35.478 35.933 35.478 C 34.84 35.478 33.838 35.022 33.109 34.294 C 32.381 33.565 32.016 32.563 32.016 31.561 Z  M 33.291 31.561 C 33.291 30.103 34.476 28.919 35.933 28.919 C 36.571 28.919 37.3 29.192 37.755 29.739 C 38.211 30.194 38.484 30.832 38.484 31.561 C 38.484 33.018 37.3 34.202 35.933 34.202 C 35.204 34.202 34.567 33.929 34.02 33.383 C 33.565 32.927 33.291 32.289 33.291 31.561 Z " fill-rule="evenodd" fill="rgb(0,0,0)"/></g></g></svg>